<mxfile host="app.diagrams.net" modified="2023-10-15T15:28:34.413Z" agent="Mozilla/5.0 (Windows NT 10.0; Win64; x64; rv:109.0) Gecko/20100101 Firefox/118.0" etag="xUpYcg203QCAHGJw-fmX" version="22.0.4" type="device">
  <diagram name="Page-1" id="0783ab3e-0a74-02c8-0abd-f7b4e66b4bec">
    <mxGraphModel dx="1345" dy="680" grid="1" gridSize="10" guides="1" tooltips="1" connect="1" arrows="1" fold="1" page="1" pageScale="1" pageWidth="850" pageHeight="1100" background="none" math="0" shadow="0">
      <root>
        <mxCell id="0" />
        <mxCell id="1" parent="0" />
        <mxCell id="1c1d494c118603dd-1" value="Диаграмма деятельности" style="swimlane;html=1;childLayout=stackLayout;startSize=20;rounded=0;shadow=0;comic=0;labelBackgroundColor=none;strokeWidth=1;fontFamily=Verdana;fontSize=12;align=center;" parent="1" vertex="1">
          <mxGeometry x="40" y="20" width="1380" height="1200" as="geometry" />
        </mxCell>
        <mxCell id="1c1d494c118603dd-3" value="Пользователь" style="swimlane;html=1;startSize=20;" parent="1c1d494c118603dd-1" vertex="1">
          <mxGeometry y="20" width="410" height="1180" as="geometry" />
        </mxCell>
        <mxCell id="60571a20871a0731-4" value="" style="ellipse;whiteSpace=wrap;html=1;rounded=0;shadow=0;comic=0;labelBackgroundColor=none;strokeWidth=1;fillColor=#000000;fontFamily=Verdana;fontSize=12;align=center;" parent="1c1d494c118603dd-3" vertex="1">
          <mxGeometry x="185" y="30" width="40" height="40" as="geometry" />
        </mxCell>
        <mxCell id="QSJmMbfqRpK5gJr8gE1Z-21" style="edgeStyle=none;rounded=0;html=1;labelBackgroundColor=none;startArrow=none;startFill=0;startSize=5;endArrow=classicThin;endFill=1;endSize=5;jettySize=auto;orthogonalLoop=1;strokeWidth=1;fontFamily=Verdana;fontSize=12;exitX=0.5;exitY=1;exitDx=0;exitDy=0;" edge="1" parent="1c1d494c118603dd-3" source="60571a20871a0731-4">
          <mxGeometry relative="1" as="geometry">
            <mxPoint x="119.17" y="100" as="sourcePoint" />
            <mxPoint x="205" y="110" as="targetPoint" />
          </mxGeometry>
        </mxCell>
        <mxCell id="QSJmMbfqRpK5gJr8gE1Z-22" value="Выбор товара" style="rounded=1;whiteSpace=wrap;html=1;hachureGap=4;fontFamily=Architects Daughter;fontSource=https%3A%2F%2Ffonts.googleapis.com%2Fcss%3Ffamily%3DArchitects%2BDaughter;fontSize=20;" vertex="1" parent="1c1d494c118603dd-3">
          <mxGeometry x="20" y="140" width="140" height="40" as="geometry" />
        </mxCell>
        <mxCell id="QSJmMbfqRpK5gJr8gE1Z-24" style="edgeStyle=none;rounded=0;html=1;labelBackgroundColor=none;startArrow=none;startFill=0;startSize=5;endArrow=classicThin;endFill=1;endSize=5;jettySize=auto;orthogonalLoop=1;strokeWidth=1;fontFamily=Verdana;fontSize=12;entryX=0.5;entryY=0;entryDx=0;entryDy=0;" edge="1" parent="1c1d494c118603dd-3" target="QSJmMbfqRpK5gJr8gE1Z-22">
          <mxGeometry relative="1" as="geometry">
            <mxPoint x="90" y="110" as="sourcePoint" />
            <mxPoint x="100" y="100" as="targetPoint" />
          </mxGeometry>
        </mxCell>
        <mxCell id="QSJmMbfqRpK5gJr8gE1Z-26" value="" style="rounded=0;whiteSpace=wrap;html=1;hachureGap=4;fontFamily=Architects Daughter;fontSource=https%3A%2F%2Ffonts.googleapis.com%2Fcss%3Ffamily%3DArchitects%2BDaughter;fontSize=20;fillColor=#000000;" vertex="1" parent="1c1d494c118603dd-3">
          <mxGeometry x="70" y="100" width="280" height="10" as="geometry" />
        </mxCell>
        <mxCell id="QSJmMbfqRpK5gJr8gE1Z-27" value="Авторизация" style="rounded=1;whiteSpace=wrap;html=1;hachureGap=4;fontFamily=Architects Daughter;fontSource=https%3A%2F%2Ffonts.googleapis.com%2Fcss%3Ffamily%3DArchitects%2BDaughter;fontSize=20;" vertex="1" parent="1c1d494c118603dd-3">
          <mxGeometry x="258" y="140" width="140" height="40" as="geometry" />
        </mxCell>
        <mxCell id="QSJmMbfqRpK5gJr8gE1Z-28" style="edgeStyle=none;rounded=0;html=1;labelBackgroundColor=none;startArrow=none;startFill=0;startSize=5;endArrow=classicThin;endFill=1;endSize=5;jettySize=auto;orthogonalLoop=1;strokeWidth=1;fontFamily=Verdana;fontSize=12;entryX=0.5;entryY=0;entryDx=0;entryDy=0;exitX=0.921;exitY=1.233;exitDx=0;exitDy=0;exitPerimeter=0;" edge="1" parent="1c1d494c118603dd-3" source="QSJmMbfqRpK5gJr8gE1Z-26" target="QSJmMbfqRpK5gJr8gE1Z-27">
          <mxGeometry relative="1" as="geometry">
            <mxPoint x="225" y="150" as="sourcePoint" />
            <mxPoint x="225" y="180" as="targetPoint" />
          </mxGeometry>
        </mxCell>
        <mxCell id="QSJmMbfqRpK5gJr8gE1Z-29" value="Добавление товара в корзину" style="rounded=1;whiteSpace=wrap;html=1;hachureGap=4;fontFamily=Architects Daughter;fontSource=https%3A%2F%2Ffonts.googleapis.com%2Fcss%3Ffamily%3DArchitects%2BDaughter;fontSize=20;" vertex="1" parent="1c1d494c118603dd-3">
          <mxGeometry x="20" y="200" width="140" height="80" as="geometry" />
        </mxCell>
        <mxCell id="QSJmMbfqRpK5gJr8gE1Z-30" style="edgeStyle=none;rounded=0;html=1;labelBackgroundColor=none;startArrow=none;startFill=0;startSize=5;endArrow=classicThin;endFill=1;endSize=5;jettySize=auto;orthogonalLoop=1;strokeWidth=1;fontFamily=Verdana;fontSize=12;entryX=0.5;entryY=0;entryDx=0;entryDy=0;exitX=0.5;exitY=1;exitDx=0;exitDy=0;" edge="1" parent="1c1d494c118603dd-3" source="QSJmMbfqRpK5gJr8gE1Z-22" target="QSJmMbfqRpK5gJr8gE1Z-29">
          <mxGeometry relative="1" as="geometry">
            <mxPoint x="204.51999999999998" y="225" as="sourcePoint" />
            <mxPoint x="204.51999999999998" y="255" as="targetPoint" />
          </mxGeometry>
        </mxCell>
        <mxCell id="QSJmMbfqRpK5gJr8gE1Z-31" value="" style="rounded=0;whiteSpace=wrap;html=1;hachureGap=4;fontFamily=Architects Daughter;fontSource=https%3A%2F%2Ffonts.googleapis.com%2Fcss%3Ffamily%3DArchitects%2BDaughter;fontSize=20;fillColor=#000000;" vertex="1" parent="1c1d494c118603dd-3">
          <mxGeometry x="70" y="320" width="280" height="10" as="geometry" />
        </mxCell>
        <mxCell id="QSJmMbfqRpK5gJr8gE1Z-32" style="edgeStyle=orthogonalEdgeStyle;rounded=0;sketch=1;hachureGap=4;jiggle=2;curveFitting=1;orthogonalLoop=1;jettySize=auto;html=1;exitX=0.5;exitY=1;exitDx=0;exitDy=0;fontFamily=Architects Daughter;fontSource=https%3A%2F%2Ffonts.googleapis.com%2Fcss%3Ffamily%3DArchitects%2BDaughter;fontSize=16;" edge="1" parent="1c1d494c118603dd-3" source="QSJmMbfqRpK5gJr8gE1Z-31" target="QSJmMbfqRpK5gJr8gE1Z-31">
          <mxGeometry relative="1" as="geometry" />
        </mxCell>
        <mxCell id="QSJmMbfqRpK5gJr8gE1Z-33" style="edgeStyle=none;rounded=0;html=1;labelBackgroundColor=none;startArrow=none;startFill=0;startSize=5;endArrow=classicThin;endFill=1;endSize=5;jettySize=auto;orthogonalLoop=1;strokeWidth=1;fontFamily=Verdana;fontSize=12;entryX=0.068;entryY=-0.005;entryDx=0;entryDy=0;exitX=0.5;exitY=1;exitDx=0;exitDy=0;entryPerimeter=0;" edge="1" parent="1c1d494c118603dd-3" source="QSJmMbfqRpK5gJr8gE1Z-29" target="QSJmMbfqRpK5gJr8gE1Z-31">
          <mxGeometry relative="1" as="geometry">
            <mxPoint x="80" y="290" as="sourcePoint" />
            <mxPoint x="80" y="320" as="targetPoint" />
          </mxGeometry>
        </mxCell>
        <mxCell id="QSJmMbfqRpK5gJr8gE1Z-60" style="edgeStyle=none;rounded=0;html=1;labelBackgroundColor=none;startArrow=none;startFill=0;startSize=5;endArrow=classicThin;endFill=1;endSize=5;jettySize=auto;orthogonalLoop=1;strokeWidth=1;fontFamily=Verdana;fontSize=12;entryX=0.921;entryY=-0.1;entryDx=0;entryDy=0;exitX=0.5;exitY=1;exitDx=0;exitDy=0;entryPerimeter=0;" edge="1" parent="1c1d494c118603dd-3" source="QSJmMbfqRpK5gJr8gE1Z-27" target="QSJmMbfqRpK5gJr8gE1Z-31">
          <mxGeometry relative="1" as="geometry">
            <mxPoint x="328.5" y="210" as="sourcePoint" />
            <mxPoint x="327.5" y="250" as="targetPoint" />
          </mxGeometry>
        </mxCell>
        <mxCell id="QSJmMbfqRpK5gJr8gE1Z-65" value="Оформление заказа" style="rounded=1;whiteSpace=wrap;html=1;hachureGap=4;fontFamily=Architects Daughter;fontSource=https%3A%2F%2Ffonts.googleapis.com%2Fcss%3Ffamily%3DArchitects%2BDaughter;fontSize=20;" vertex="1" parent="1c1d494c118603dd-3">
          <mxGeometry x="185" y="410" width="130" height="40" as="geometry" />
        </mxCell>
        <mxCell id="QSJmMbfqRpK5gJr8gE1Z-1" value="Сайт" style="swimlane;html=1;startSize=20;" vertex="1" parent="1c1d494c118603dd-1">
          <mxGeometry x="410" y="20" width="520" height="1180" as="geometry" />
        </mxCell>
        <mxCell id="QSJmMbfqRpK5gJr8gE1Z-62" value="Проверка авторизации" style="rounded=1;whiteSpace=wrap;html=1;hachureGap=4;fontFamily=Architects Daughter;fontSource=https%3A%2F%2Ffonts.googleapis.com%2Fcss%3Ffamily%3DArchitects%2BDaughter;fontSize=20;" vertex="1" parent="QSJmMbfqRpK5gJr8gE1Z-1">
          <mxGeometry x="60" y="340" width="130" height="40" as="geometry" />
        </mxCell>
        <mxCell id="QSJmMbfqRpK5gJr8gE1Z-67" value="Проверка наличия товаров" style="rounded=1;whiteSpace=wrap;html=1;hachureGap=4;fontFamily=Architects Daughter;fontSource=https%3A%2F%2Ffonts.googleapis.com%2Fcss%3Ffamily%3DArchitects%2BDaughter;fontSize=20;" vertex="1" parent="QSJmMbfqRpK5gJr8gE1Z-1">
          <mxGeometry x="130" y="465" width="160" height="40" as="geometry" />
        </mxCell>
        <mxCell id="QSJmMbfqRpK5gJr8gE1Z-68" value="&lt;font style=&quot;font-size: 14px;&quot;&gt;Наличие товара&lt;/font&gt;" style="rhombus;whiteSpace=wrap;html=1;hachureGap=4;fontFamily=Architects Daughter;fontSource=https%3A%2F%2Ffonts.googleapis.com%2Fcss%3Ffamily%3DArchitects%2BDaughter;fontSize=20;" vertex="1" parent="QSJmMbfqRpK5gJr8gE1Z-1">
          <mxGeometry x="145" y="530" width="130" height="80" as="geometry" />
        </mxCell>
        <mxCell id="QSJmMbfqRpK5gJr8gE1Z-69" style="edgeStyle=none;rounded=0;html=1;labelBackgroundColor=none;startArrow=none;startFill=0;startSize=5;endArrow=classicThin;endFill=1;endSize=5;jettySize=auto;orthogonalLoop=1;strokeWidth=1;fontFamily=Verdana;fontSize=12;entryX=0.5;entryY=0;entryDx=0;entryDy=0;exitX=0.5;exitY=1;exitDx=0;exitDy=0;" edge="1" parent="QSJmMbfqRpK5gJr8gE1Z-1" source="QSJmMbfqRpK5gJr8gE1Z-67" target="QSJmMbfqRpK5gJr8gE1Z-68">
          <mxGeometry relative="1" as="geometry">
            <mxPoint x="31" y="530" as="sourcePoint" />
            <mxPoint x="30" y="570" as="targetPoint" />
          </mxGeometry>
        </mxCell>
        <mxCell id="QSJmMbfqRpK5gJr8gE1Z-70" value="Нет" style="edgeLabel;html=1;align=center;verticalAlign=middle;resizable=0;points=[];fontSize=20;fontFamily=Architects Daughter;" vertex="1" connectable="0" parent="QSJmMbfqRpK5gJr8gE1Z-69">
          <mxGeometry x="0.0438" y="-1" relative="1" as="geometry">
            <mxPoint x="91" y="42" as="offset" />
          </mxGeometry>
        </mxCell>
        <mxCell id="QSJmMbfqRpK5gJr8gE1Z-71" value="Да" style="edgeLabel;html=1;align=center;verticalAlign=middle;resizable=0;points=[];fontSize=20;fontFamily=Architects Daughter;" vertex="1" connectable="0" parent="QSJmMbfqRpK5gJr8gE1Z-1">
          <mxGeometry x="320" y="580.0033333333333" as="geometry">
            <mxPoint x="-206" y="-26" as="offset" />
          </mxGeometry>
        </mxCell>
        <mxCell id="QSJmMbfqRpK5gJr8gE1Z-72" style="edgeStyle=none;rounded=0;html=1;labelBackgroundColor=none;startArrow=none;startFill=0;startSize=5;endArrow=classicThin;endFill=1;endSize=5;jettySize=auto;orthogonalLoop=1;strokeWidth=1;fontFamily=Verdana;fontSize=12;exitX=1;exitY=0.5;exitDx=0;exitDy=0;entryX=0.5;entryY=0;entryDx=0;entryDy=0;" edge="1" parent="QSJmMbfqRpK5gJr8gE1Z-1" source="QSJmMbfqRpK5gJr8gE1Z-68" target="QSJmMbfqRpK5gJr8gE1Z-74">
          <mxGeometry relative="1" as="geometry">
            <mxPoint x="310" y="600" as="sourcePoint" />
            <mxPoint x="340" y="570" as="targetPoint" />
            <Array as="points">
              <mxPoint x="355" y="570" />
            </Array>
          </mxGeometry>
        </mxCell>
        <mxCell id="QSJmMbfqRpK5gJr8gE1Z-74" value="Уведомление о недоступности товара" style="rounded=1;whiteSpace=wrap;html=1;hachureGap=4;fontFamily=Architects Daughter;fontSource=https%3A%2F%2Ffonts.googleapis.com%2Fcss%3Ffamily%3DArchitects%2BDaughter;fontSize=20;" vertex="1" parent="QSJmMbfqRpK5gJr8gE1Z-1">
          <mxGeometry x="275" y="600" width="160" height="80" as="geometry" />
        </mxCell>
        <mxCell id="QSJmMbfqRpK5gJr8gE1Z-78" style="edgeStyle=none;rounded=0;html=1;labelBackgroundColor=none;startArrow=none;startFill=0;startSize=5;endArrow=classicThin;endFill=1;endSize=5;jettySize=auto;orthogonalLoop=1;strokeWidth=1;fontFamily=Verdana;fontSize=12;exitX=0;exitY=0.5;exitDx=0;exitDy=0;" edge="1" parent="QSJmMbfqRpK5gJr8gE1Z-1" source="QSJmMbfqRpK5gJr8gE1Z-68">
          <mxGeometry relative="1" as="geometry">
            <mxPoint x="50" y="640" as="sourcePoint" />
            <mxPoint x="80" y="600" as="targetPoint" />
            <Array as="points">
              <mxPoint x="80" y="570" />
            </Array>
          </mxGeometry>
        </mxCell>
        <mxCell id="QSJmMbfqRpK5gJr8gE1Z-79" value="Резервирование товара" style="rounded=1;whiteSpace=wrap;html=1;hachureGap=4;fontFamily=Architects Daughter;fontSource=https%3A%2F%2Ffonts.googleapis.com%2Fcss%3Ffamily%3DArchitects%2BDaughter;fontSize=20;" vertex="1" parent="QSJmMbfqRpK5gJr8gE1Z-1">
          <mxGeometry x="20" y="600" width="150" height="70" as="geometry" />
        </mxCell>
        <mxCell id="1c1d494c118603dd-4" value="Система оплаты" style="swimlane;html=1;startSize=20;" parent="1c1d494c118603dd-1" vertex="1">
          <mxGeometry x="930" y="20" width="450" height="1180" as="geometry" />
        </mxCell>
        <mxCell id="1c1d494c118603dd-45" style="edgeStyle=none;rounded=0;html=1;labelBackgroundColor=none;startArrow=none;startFill=0;startSize=5;endArrow=classicThin;endFill=1;endSize=5;jettySize=auto;orthogonalLoop=1;strokeWidth=1;fontFamily=Verdana;fontSize=12;exitX=0.5;exitY=1;exitDx=0;exitDy=0;entryX=0.5;entryY=0;entryDx=0;entryDy=0;" parent="1c1d494c118603dd-4" source="QSJmMbfqRpK5gJr8gE1Z-84" target="QSJmMbfqRpK5gJr8gE1Z-85" edge="1">
          <mxGeometry relative="1" as="geometry">
            <mxPoint x="120" y="840" as="sourcePoint" />
            <mxPoint x="90" y="920" as="targetPoint" />
          </mxGeometry>
        </mxCell>
        <mxCell id="QSJmMbfqRpK5gJr8gE1Z-84" value="Оплата товара" style="rounded=1;whiteSpace=wrap;html=1;hachureGap=4;fontFamily=Architects Daughter;fontSource=https%3A%2F%2Ffonts.googleapis.com%2Fcss%3Ffamily%3DArchitects%2BDaughter;fontSize=20;" vertex="1" parent="1c1d494c118603dd-4">
          <mxGeometry x="130" y="700" width="150" height="70" as="geometry" />
        </mxCell>
        <mxCell id="QSJmMbfqRpK5gJr8gE1Z-85" value="&lt;font style=&quot;font-size: 14px;&quot;&gt;Оплата товара&lt;/font&gt;" style="rhombus;whiteSpace=wrap;html=1;hachureGap=4;fontFamily=Architects Daughter;fontSource=https%3A%2F%2Ffonts.googleapis.com%2Fcss%3Ffamily%3DArchitects%2BDaughter;fontSize=20;" vertex="1" parent="1c1d494c118603dd-4">
          <mxGeometry x="130" y="800" width="150" height="80" as="geometry" />
        </mxCell>
        <mxCell id="QSJmMbfqRpK5gJr8gE1Z-88" style="edgeStyle=none;rounded=0;html=1;labelBackgroundColor=none;startArrow=none;startFill=0;startSize=5;endArrow=classicThin;endFill=1;endSize=5;jettySize=auto;orthogonalLoop=1;strokeWidth=1;fontFamily=Verdana;fontSize=12;exitX=1;exitY=0.5;exitDx=0;exitDy=0;entryX=0.5;entryY=0;entryDx=0;entryDy=0;" edge="1" parent="1c1d494c118603dd-4" source="QSJmMbfqRpK5gJr8gE1Z-85" target="QSJmMbfqRpK5gJr8gE1Z-93">
          <mxGeometry relative="1" as="geometry">
            <mxPoint x="270" y="930" as="sourcePoint" />
            <mxPoint x="330" y="880" as="targetPoint" />
            <Array as="points">
              <mxPoint x="330" y="840" />
            </Array>
          </mxGeometry>
        </mxCell>
        <mxCell id="QSJmMbfqRpK5gJr8gE1Z-89" style="edgeStyle=none;rounded=0;html=1;labelBackgroundColor=none;startArrow=none;startFill=0;startSize=5;endArrow=classicThin;endFill=1;endSize=5;jettySize=auto;orthogonalLoop=1;strokeWidth=1;fontFamily=Verdana;fontSize=12;exitX=0;exitY=0.5;exitDx=0;exitDy=0;entryX=0.5;entryY=0;entryDx=0;entryDy=0;" edge="1" parent="1c1d494c118603dd-4" source="QSJmMbfqRpK5gJr8gE1Z-85" target="QSJmMbfqRpK5gJr8gE1Z-92">
          <mxGeometry relative="1" as="geometry">
            <mxPoint x="20" y="840" as="sourcePoint" />
            <mxPoint x="70" y="880" as="targetPoint" />
            <Array as="points">
              <mxPoint x="75" y="840" />
            </Array>
          </mxGeometry>
        </mxCell>
        <mxCell id="QSJmMbfqRpK5gJr8gE1Z-90" value="Да" style="text;html=1;strokeColor=none;fillColor=none;align=center;verticalAlign=middle;whiteSpace=wrap;rounded=0;fontSize=20;fontFamily=Architects Daughter;" vertex="1" parent="1c1d494c118603dd-4">
          <mxGeometry x="274" y="813" width="60" height="30" as="geometry" />
        </mxCell>
        <mxCell id="QSJmMbfqRpK5gJr8gE1Z-91" value="Нет" style="text;html=1;strokeColor=none;fillColor=none;align=center;verticalAlign=middle;whiteSpace=wrap;rounded=0;fontSize=20;fontFamily=Architects Daughter;" vertex="1" parent="1c1d494c118603dd-4">
          <mxGeometry x="73" y="814" width="60" height="30" as="geometry" />
        </mxCell>
        <mxCell id="QSJmMbfqRpK5gJr8gE1Z-92" value="&lt;font style=&quot;font-size: 20px;&quot;&gt;Уведомление об успешной оплате&lt;/font&gt;" style="rounded=1;whiteSpace=wrap;html=1;hachureGap=4;fontFamily=Architects Daughter;fontSource=https%3A%2F%2Ffonts.googleapis.com%2Fcss%3Ffamily%3DArchitects%2BDaughter;fontSize=20;" vertex="1" parent="1c1d494c118603dd-4">
          <mxGeometry x="10" y="890" width="130" height="70" as="geometry" />
        </mxCell>
        <mxCell id="QSJmMbfqRpK5gJr8gE1Z-93" value="Уведомление об ошибке оплаты" style="rounded=1;whiteSpace=wrap;html=1;hachureGap=4;fontFamily=Architects Daughter;fontSource=https%3A%2F%2Ffonts.googleapis.com%2Fcss%3Ffamily%3DArchitects%2BDaughter;fontSize=20;" vertex="1" parent="1c1d494c118603dd-4">
          <mxGeometry x="266" y="890" width="130" height="70" as="geometry" />
        </mxCell>
        <mxCell id="60571a20871a0731-5" value="" style="shape=mxgraph.bpmn.shape;html=1;verticalLabelPosition=bottom;labelBackgroundColor=#ffffff;verticalAlign=top;perimeter=ellipsePerimeter;outline=end;symbol=terminate;rounded=0;shadow=0;comic=0;strokeWidth=1;fontFamily=Verdana;fontSize=12;align=center;" parent="1c1d494c118603dd-4" vertex="1">
          <mxGeometry x="210" y="1040" width="40" height="40" as="geometry" />
        </mxCell>
        <mxCell id="QSJmMbfqRpK5gJr8gE1Z-95" style="edgeStyle=none;rounded=0;html=1;labelBackgroundColor=none;startArrow=none;startFill=0;startSize=5;endArrow=classicThin;endFill=1;endSize=5;jettySize=auto;orthogonalLoop=1;strokeWidth=1;fontFamily=Verdana;fontSize=12;exitX=0.5;exitY=1;exitDx=0;exitDy=0;entryX=0.5;entryY=0;entryDx=0;entryDy=0;" edge="1" parent="1c1d494c118603dd-4" source="QSJmMbfqRpK5gJr8gE1Z-92" target="60571a20871a0731-5">
          <mxGeometry relative="1" as="geometry">
            <mxPoint x="180" y="970" as="sourcePoint" />
            <mxPoint x="180" y="1000" as="targetPoint" />
            <Array as="points">
              <mxPoint x="75" y="1000" />
              <mxPoint x="230" y="1000" />
            </Array>
          </mxGeometry>
        </mxCell>
        <mxCell id="QSJmMbfqRpK5gJr8gE1Z-61" style="edgeStyle=none;rounded=0;html=1;labelBackgroundColor=none;startArrow=none;startFill=0;startSize=5;endArrow=classicThin;endFill=1;endSize=5;jettySize=auto;orthogonalLoop=1;strokeWidth=1;fontFamily=Verdana;fontSize=12;exitX=0.5;exitY=1;exitDx=0;exitDy=0;entryX=0;entryY=0.5;entryDx=0;entryDy=0;" edge="1" parent="1c1d494c118603dd-1" source="QSJmMbfqRpK5gJr8gE1Z-31" target="QSJmMbfqRpK5gJr8gE1Z-62">
          <mxGeometry relative="1" as="geometry">
            <mxPoint x="204.52" y="391" as="sourcePoint" />
            <mxPoint x="210" y="460" as="targetPoint" />
            <Array as="points">
              <mxPoint x="210" y="380" />
            </Array>
          </mxGeometry>
        </mxCell>
        <mxCell id="QSJmMbfqRpK5gJr8gE1Z-64" style="edgeStyle=none;rounded=0;html=1;labelBackgroundColor=none;startArrow=none;startFill=0;startSize=5;endArrow=classicThin;endFill=1;endSize=5;jettySize=auto;orthogonalLoop=1;strokeWidth=1;fontFamily=Verdana;fontSize=12;entryX=0.5;entryY=0;entryDx=0;entryDy=0;exitX=0.5;exitY=1;exitDx=0;exitDy=0;" edge="1" parent="1c1d494c118603dd-1" source="QSJmMbfqRpK5gJr8gE1Z-62" target="QSJmMbfqRpK5gJr8gE1Z-65">
          <mxGeometry relative="1" as="geometry">
            <mxPoint x="520" y="410" as="sourcePoint" />
            <mxPoint x="520" y="549" as="targetPoint" />
            <Array as="points">
              <mxPoint x="535" y="420" />
              <mxPoint x="440" y="420" />
              <mxPoint x="380" y="420" />
              <mxPoint x="250" y="420" />
            </Array>
          </mxGeometry>
        </mxCell>
        <mxCell id="QSJmMbfqRpK5gJr8gE1Z-66" style="edgeStyle=none;rounded=0;html=1;labelBackgroundColor=none;startArrow=none;startFill=0;startSize=5;endArrow=classicThin;endFill=1;endSize=5;jettySize=auto;orthogonalLoop=1;strokeWidth=1;fontFamily=Verdana;fontSize=12;exitX=0.5;exitY=1;exitDx=0;exitDy=0;entryX=0;entryY=0.5;entryDx=0;entryDy=0;" edge="1" parent="1c1d494c118603dd-1" source="QSJmMbfqRpK5gJr8gE1Z-65" target="QSJmMbfqRpK5gJr8gE1Z-67">
          <mxGeometry relative="1" as="geometry">
            <mxPoint x="249.51999999999998" y="510" as="sourcePoint" />
            <mxPoint x="250" y="510" as="targetPoint" />
            <Array as="points">
              <mxPoint x="250" y="500" />
            </Array>
          </mxGeometry>
        </mxCell>
        <mxCell id="QSJmMbfqRpK5gJr8gE1Z-75" style="edgeStyle=none;rounded=0;html=1;labelBackgroundColor=none;startArrow=none;startFill=0;startSize=5;endArrow=classicThin;endFill=1;endSize=5;jettySize=auto;orthogonalLoop=1;strokeWidth=1;fontFamily=Verdana;fontSize=12;entryX=1;entryY=0.5;entryDx=0;entryDy=0;exitX=0.5;exitY=1;exitDx=0;exitDy=0;" edge="1" parent="1c1d494c118603dd-1" source="QSJmMbfqRpK5gJr8gE1Z-74" target="QSJmMbfqRpK5gJr8gE1Z-22">
          <mxGeometry relative="1" as="geometry">
            <mxPoint x="764.52" y="720" as="sourcePoint" />
            <mxPoint x="765" y="720" as="targetPoint" />
            <Array as="points">
              <mxPoint x="765" y="740" />
              <mxPoint x="850" y="740" />
              <mxPoint x="850" y="260" />
              <mxPoint x="200" y="260" />
              <mxPoint x="200" y="180" />
            </Array>
          </mxGeometry>
        </mxCell>
        <mxCell id="QSJmMbfqRpK5gJr8gE1Z-83" style="edgeStyle=none;rounded=0;html=1;labelBackgroundColor=none;startArrow=none;startFill=0;startSize=5;endArrow=classicThin;endFill=1;endSize=5;jettySize=auto;orthogonalLoop=1;strokeWidth=1;fontFamily=Verdana;fontSize=12;exitX=0.5;exitY=1;exitDx=0;exitDy=0;entryX=0;entryY=0.5;entryDx=0;entryDy=0;" edge="1" parent="1c1d494c118603dd-1" source="QSJmMbfqRpK5gJr8gE1Z-79" target="QSJmMbfqRpK5gJr8gE1Z-84">
          <mxGeometry relative="1" as="geometry">
            <mxPoint x="490" y="740" as="sourcePoint" />
            <mxPoint x="505" y="790" as="targetPoint" />
            <Array as="points">
              <mxPoint x="505" y="755" />
            </Array>
          </mxGeometry>
        </mxCell>
        <mxCell id="QSJmMbfqRpK5gJr8gE1Z-94" style="edgeStyle=none;rounded=0;html=1;labelBackgroundColor=none;startArrow=none;startFill=0;startSize=5;endArrow=classicThin;endFill=1;endSize=5;jettySize=auto;orthogonalLoop=1;strokeWidth=1;fontFamily=Verdana;fontSize=12;entryX=1;entryY=0.5;entryDx=0;entryDy=0;exitX=1;exitY=0.5;exitDx=0;exitDy=0;" edge="1" parent="1c1d494c118603dd-1" source="QSJmMbfqRpK5gJr8gE1Z-93" target="QSJmMbfqRpK5gJr8gE1Z-65">
          <mxGeometry relative="1" as="geometry">
            <mxPoint x="1250" y="1080" as="sourcePoint" />
            <mxPoint x="1145" y="830" as="targetPoint" />
            <Array as="points">
              <mxPoint x="1360" y="945" />
              <mxPoint x="1360" y="450" />
            </Array>
          </mxGeometry>
        </mxCell>
      </root>
    </mxGraphModel>
  </diagram>
</mxfile>
